<?xml version="1.0" encoding="utf-8"?>
<!-- Generator: Adobe Illustrator 28.0.0, SVG Export Plug-In . SVG Version: 6.00 Build 0)  -->
<svg version="1.1" id="Robot_astronaut" xmlns="http://www.w3.org/2000/svg" xmlns:xlink="http://www.w3.org/1999/xlink" x="0px"
	 y="0px" viewBox="0 0 1030.48 1080" style="enable-background:new 0 0 1030.48 1080;" xml:space="preserve">
<style type="text/css">
	.st0{fill:#EDF1F7;}
	.st1{fill:#FBFBFB;}
	.st2{fill:#D7DEED;}
	.st3{fill:#748DB2;}
	.st4{fill:#576F93;}
	.st5{fill:#AFB9D2;}
	.st6{fill:#85D37A;}
	.st7{fill:#ADE2A3;}
	.st8{opacity:0.63;fill:#42EFFC;}
	.st9{fill:#465B7A;}
	.st10{fill:#00CAFF;}
</style>
<g id="Left_foot">
	<path class="st0" d="M504.31,822.89c-31.87-9.2-63.74-18.4-95.61-27.61c-3.47-1-7.15,0.64-8.72,3.89
		c-5.43,11.29-18.2,35.94-22.45,44.12c-0.9,1.74-1.08,3.74-0.5,5.61c4.28,13.69,8.82,27.61,13.63,41.75
		c6.52,19.2,13.21,37.79,19.99,55.77c0.84,2.22,2.68,3.89,4.97,4.52c24.61,6.77,49.22,13.54,73.82,20.31
		c3.87,1.06,7.9-1.14,9.05-4.98c5.1-17.11,9.85-38.14,12.21-62.5c2.81-28.98,1.46-54.46-1.06-74.67
		C507.7,826.85,506.25,825.16,504.31,822.89z"/>
</g>
<g id="Right_Foot">
	<path class="st0" d="M246.97,735.49c-4.24,7.38-7.92,13.78-11.04,19.17c-1.93,3.35-2.91,7.15-2.84,11.02
		c0.69,39.41,1.37,78.82,2.06,118.23c0.15,8.79,5.93,16.5,14.31,19.13c22.35,7.01,44.64,13.99,66.99,21
		c5.77,1.81,12.05-0.51,15.22-5.66c10.01-16.22,20.52-36.15,29.49-59.72c13.62-35.11,19.57-67.1,22.26-92.13
		c0.38-3.55-1.85-6.84-5.27-7.84c-36.52-10.65-73.17-21.23-109.71-31.86C260.15,724.42,251.27,727.99,246.97,735.49z"/>
</g>
<g id="Left_Shoulder">
	<g>
		<path class="st1" d="M657.99,729.6l58.27,4.16c8.23,0.53,16.16-18.43,17.71-42.35c1.55-23.92-3.87-43.74-12.11-44.27l-58.27-4.16
			c-27.51,1.3-47.23,24.74-44.99,47.95C620.42,709.8,636.55,726.42,657.99,729.6z"/>
		
			<ellipse transform="matrix(0.0645 -0.9979 0.9979 0.0645 -16.3523 1363.4558)" class="st2" cx="719.06" cy="690.45" rx="43.4" ry="14.94"/>
	</g>
</g>
<g id="Left_elbow">
	<g>
		<g>
			<path class="st3" d="M751.78,674.62c-0.03-4.16-9.87-7.46-21.97-7.36c-12.1,0.1-21.88,3.55-21.84,7.72l0.64,39.24
				c0.03,4.16,9.87,7.46,21.97,7.36c12.1-0.1,21.88-3.55,21.84-7.72L751.78,674.62z"/>
			
				<ellipse transform="matrix(1 -8.133373e-03 8.133373e-03 1 -5.7833 5.9652)" class="st4" cx="730.52" cy="714.03" rx="13.9" ry="3.86"/>
		</g>
	</g>
</g>
<g id="Left_arm">
	<g>
		<path class="st1" d="M733.16,651.17c-7.96,2.17-9.32,22.67-3.03,45.8c6.29,23.13,17.85,40.12,25.81,37.96l70.34-19.54
			c7.96-2.17,9.32-22.67,3.03-45.8c-6.29-23.13-17.85-40.12-25.81-37.96L733.16,651.17z"/>
	</g>
</g>
<g id="Left_Leg">
	<path class="st3" d="M550.38,742.83c-17.27-18.92-36.55-29.43-43.07-23.48l-84.95,77.57c-1.63,1.49-2.3,3.86-2.13,6.88
		c0.47,8.31,7.36,21.51,18.48,34.58c1.01,1.19,2.06,2.38,3.14,3.56c1.08,1.18,2.17,2.33,3.26,3.45c4.37,4.46,8.8,8.36,13.07,11.58
		c1.07,0.8,2.13,1.57,3.17,2.28c10.44,7.18,19.5,9.89,23.57,6.17c0,0,0,0,0,0l84.95-77.57C576.38,781.9,567.66,761.75,550.38,742.83
		z"/>
</g>
<g id="Right_Leg">
	<path class="st3" d="M410.48,686.65c-17.27-18.92-36.55-29.43-43.07-23.48l-84.95,77.57c-1.63,1.49-2.3,3.86-2.13,6.88
		c0.47,8.31,7.36,21.51,18.48,34.58c1.01,1.19,2.06,2.38,3.14,3.56c1.08,1.18,2.17,2.33,3.26,3.45c4.37,4.46,8.8,8.36,13.07,11.58
		c1.07,0.8,2.13,1.57,3.17,2.28c10.44,7.18,19.5,9.89,23.57,6.17c0,0,0,0,0,0l84.95-77.57
		C436.48,725.72,427.76,705.57,410.48,686.65z"/>
</g>
<g id="Body">
	<g>
		<path class="st5" d="M260.03,540.28l-34.78,105.65c-0.99,2.91-0.47,6.11,1.38,8.56l16.54,21.84c1.2,1.59,2.89,2.75,4.8,3.3
			l103.37,29.86c4.74,1.37,9.72-1.23,11.31-5.9l33.96-103.24c0.99-2.91,0.47-6.12-1.39-8.57l-16.62-21.89
			c-1.16-1.53-2.76-2.65-4.59-3.23l-102.47-32.21C266.76,532.94,261.65,535.53,260.03,540.28z"/>
		<g>
			<path class="st2" d="M336.86,538.94l-52.99,155.55c-2.24,6.59-1.07,13.86,3.13,19.4l37.5,49.51c2.73,3.6,6.55,6.22,10.88,7.48
				l234.33,67.68c10.75,3.1,22.03-2.78,25.64-13.37l51.14-150.1c2.25-6.59,1.07-13.87-3.14-19.42l-37.68-49.63
				c-2.63-3.46-6.26-6.01-10.4-7.32l-232.29-73.01C352.11,522.3,340.52,528.18,336.86,538.94z"/>
			<path class="st0" d="M349.76,775l219.94,63.55c10.75,3.11,22.04-2.78,25.64-13.37l47.79-140.27
				c3.79-11.14-2.33-23.21-13.55-26.74L411.35,589.6c-10.85-3.41-22.44,2.46-26.11,13.23l-49.5,145.28
				C331.9,759.43,338.28,771.68,349.76,775z"/>
			<g>
				<path class="st6" d="M451.71,761.25c1.66,2.24,4.01,3.87,6.68,4.64l98.1,28.34c5.01,1.48,10.22-1.25,11.91-6.19l20.49-60.15
					c1.1-3.22,0.86-6.75-0.67-9.8l-5.51-14.49c-1.54-3.09-4.27-5.41-7.57-6.44L474.8,665.65c-5.28-1.69-10.9,1.24-12.65,6.39
					l-21.77,63.91c-1.35,3.96-0.67,8.33,1.83,11.69L451.71,761.25z"/>
				<path class="st7" d="M462.33,767.48l94.69,27.36c4.63,1.34,9.49-1.2,11.04-5.76l20.58-60.39c1.63-4.79-1-9.99-5.83-11.51
					l-93.96-29.52c-4.67-1.47-9.66,1.06-11.24,5.7l-21.31,62.55C454.63,760.78,457.38,766.05,462.33,767.48z"/>
			</g>
			<g>
				<path class="st1" d="M400.48,651.73l-24.93,73.17c-1.86,5.47,1.08,11.28,6.45,13.11l0.95,0.32l32.19,7.8
					c5.19,1.3,10.51-1.58,12.27-6.73l24.28-71.28c1.86-5.47-1.08-11.28-6.45-13.11l-0.32-0.11l-31.55-9.69
					C407.98,643.5,402.31,646.37,400.48,651.73z M410.78,655.95l30.14,9.33l-23.82,69.91l-30.79-7.44L410.78,655.95z"/>
				<polygon class="st7" points="410.78,655.95 386.32,727.75 417.1,735.19 440.92,665.28 				"/>
			</g>
		</g>
	</g>
</g>
<g id="Helm_Back">
	<g>
		<path class="st4" d="M714.5,667.61c-9.9-10.48-88.93-46.98-215.72-90.18c-125.82-42.86-210.32-62.23-225.57-60.32
			c-3.72,2.53-8.79,2.64-12.68-0.13c-5-3.56-6.18-10.49-2.62-15.49c4.43-6.23,9.44-13.3,85.29,5.7
			c44.53,11.15,102.33,28.63,162.75,49.22c67.47,22.98,224.92,79.23,229.75,104.93c1.13,6.03-2.84,11.83-8.87,12.96
			c-0.69,0.13-1.38,0.2-2.06,0.2C720.27,674.5,716.2,671.77,714.5,667.61z M713.87,665.46c0,0,0-0.01-0.01-0.02
			C713.87,665.45,713.87,665.45,713.87,665.46z"/>
	</g>
</g>
<g id="Helmet_Front">
	<g>
		<path class="st8" d="M820.36,242.25c-0.17-0.26-0.33-0.53-0.5-0.79c-1.08-1.68-2.18-3.34-3.29-5c-0.3-0.45-0.6-0.9-0.9-1.35
			c-1.04-1.53-2.1-3.05-3.17-4.56c-0.39-0.56-0.79-1.12-1.19-1.68c-1.02-1.42-2.05-2.83-3.1-4.24c-0.47-0.63-0.94-1.27-1.42-1.9
			c-1.01-1.34-2.03-2.66-3.06-3.98c-0.53-0.69-1.07-1.37-1.61-2.05c-1-1.26-2.02-2.52-3.04-3.77c-0.59-0.72-1.19-1.44-1.79-2.16
			c-1-1.2-2.01-2.39-3.03-3.57c-0.65-0.75-1.31-1.5-1.96-2.24c-1-1.14-2-2.27-3.02-3.39c-0.7-0.78-1.42-1.54-2.13-2.31
			c-1-1.08-2-2.16-3.01-3.22c-0.76-0.79-1.52-1.57-2.29-2.36c-1-1.02-1.99-2.05-3.01-3.06c-0.81-0.81-1.64-1.61-2.46-2.41
			c-0.99-0.97-1.98-1.94-2.99-2.9c-0.88-0.84-1.79-1.66-2.68-2.49c-0.97-0.9-1.93-1.8-2.91-2.69c-1.03-0.93-2.08-1.83-3.12-2.75
			c-0.88-0.77-1.74-1.55-2.63-2.3c-1.92-1.64-3.85-3.26-5.81-4.85c-0.63-0.51-1.27-1.01-1.91-1.51c-1.38-1.1-2.76-2.21-4.16-3.29
			c-0.8-0.61-1.61-1.21-2.41-1.82c-1.26-0.95-2.52-1.91-3.8-2.84c-0.86-0.63-1.74-1.24-2.61-1.86c-1.24-0.89-2.48-1.78-3.74-2.65
			c-0.91-0.63-1.82-1.24-2.74-1.85c-1.24-0.84-2.48-1.68-3.74-2.5c-0.94-0.62-1.9-1.22-2.85-1.83c-1.25-0.8-2.5-1.59-3.76-2.37
			c-0.98-0.6-1.96-1.19-2.94-1.79c-1.26-0.76-2.52-1.51-3.79-2.25c-1.01-0.59-2.02-1.16-3.03-1.74c-1.27-0.72-2.54-1.43-3.83-2.13
			c-1.04-0.57-2.08-1.13-3.13-1.69c-1.28-0.68-2.56-1.35-3.85-2.01c-1.07-0.55-2.15-1.1-3.23-1.64c-1.28-0.64-2.57-1.27-3.87-1.89
			c-1.11-0.53-2.22-1.06-3.34-1.58c-1.28-0.6-2.58-1.18-3.87-1.76c-1.15-0.52-2.3-1.03-3.45-1.53c-1.28-0.55-2.56-1.09-3.85-1.63
			c-1.2-0.5-2.39-1-3.6-1.49c-1.25-0.5-2.51-0.99-3.77-1.47c-1.27-0.49-2.53-0.99-3.8-1.46c-1.19-0.44-2.39-0.86-3.58-1.29
			c-1.37-0.49-2.73-0.99-4.11-1.46c-0.11-0.04-0.23-0.08-0.34-0.12c-0.38-0.13-0.77-0.24-1.15-0.37c-2.57-0.87-5.17-1.7-7.78-2.5
			c-0.77-0.24-1.54-0.46-2.3-0.69c-2.48-0.74-4.98-1.45-7.49-2.14c-0.55-0.15-1.1-0.3-1.65-0.45c-3.74-0.99-7.5-1.95-11.31-2.81
			c-21.77-4.94-43.71-7.32-65.44-7.32c-16.84,0-33.57,1.44-50.01,4.22c-0.11,0.02-0.22,0.04-0.34,0.06
			c-2.93,0.5-5.86,1.03-8.78,1.62c-0.73,0.15-1.46,0.31-2.2,0.46c-1.74,0.36-3.49,0.74-5.22,1.14c-2.31,0.52-4.61,1.07-6.91,1.65
			c-0.54,0.14-1.09,0.27-1.63,0.41c-43.07,11.01-83.42,31.37-118.06,59.58c-0.32,0.26-0.64,0.52-0.95,0.78
			c-1.12,0.92-2.25,1.81-3.36,2.75c0.05-0.03,0.11-0.06,0.16-0.09c-33.16,27.9-60.8,63.04-80.07,104.02
			c-35.99,76.53-38.27,158.65-14.31,230.76c4.14,12.44,13.01,22.63,24.76,28.24c41.2,19.67,109.5,46.58,187.93,73.3
			c108.18,36.86,201.58,61.7,232.35,62.64c60-36.2,108.28-93.4,132.78-165.3C883.81,415.8,869.05,318.45,820.36,242.25z
			 M715.58,658.76c-29.82-2.7-113.35-23.98-223.72-61.58c-74.68-25.44-144.33-52.6-186.31-72.64c-8.08-3.86-14.11-10.76-17-19.44
			c-23.93-72.03-19.09-150.04,13.65-219.66c23.7-50.41,61.34-92.88,108.86-122.82c18.26-11.5,37.54-20.87,57.49-28.05
			c55.16-12.22,114.1-10.01,171.3,9.48c1.33,0.45,2.66,0.92,3.99,1.4c3.43,1.24,4.5,5.45,2.23,8.35c-0.02,0.02-0.03,0.04-0.05,0.06
			c-12.76,17.13,4.58,51.98,38.71,77.85c34.13,25.87,72.21,32.91,85.07,15.81c1.1-1.47,1.98-3.09,2.65-4.81
			c1.45-3.76,6.3-4.73,8.86-1.66c19.24,22.99,35.12,48.53,47.26,75.82c26.13,58.73,30.26,125.14,9.73,186.05
			c-0.11,0.32-0.21,0.63-0.32,0.95C816.05,568.22,772.68,623.05,715.58,658.76z"/>
		<g>
			<path class="st3" d="M714.03,677.97c-31.84-1.07-123.66-25.79-228.49-61.5c-86.09-29.33-163.1-60.08-200.99-80.25
				c-18.08-9.65-32.69-18.68-28.35-31.44c1.98-5.8,8.28-8.95,14.09-6.93c3.74,1.27,6.36,4.34,7.22,7.92
				c1.74,1.51,6.29,4.88,17.48,10.86c36.91,19.64,112.67,49.85,197.71,78.83c101.35,34.52,192.68,59.33,222.1,60.32
				c1.35,0.01,2.32,0.02,2.98-0.01c2.86-2.3,6.8-3.15,10.54-1.88c5.81,1.97,8.92,8.28,6.95,14.09c-3.07,9.06-13.19,10.04-18.8,10.04
				C715.5,678.02,714.67,677.99,714.03,677.97z M714.23,660.84c0.01,0,0.01-0.01,0.01-0.02
				C714.23,660.83,714.23,660.84,714.23,660.84z"/>
		</g>
	</g>
</g>
<g id="Head">
	<g>
		<g>
			<circle class="st3" cx="615.2" cy="176.55" r="27.16"/>
			<path class="st2" d="M580.86,267.01l23.57,6.04l11.11-73.98c-0.1-0.32-1.25-3.66-4.75-4.77c-2.51-0.79-5.28-0.13-7.23,1.7
				C595.99,219.67,588.42,243.34,580.86,267.01z"/>
		</g>
		<path class="st3" d="M765.34,418.18c2.15,0.56,4.06,1.8,5.79,3.47l0.02-0.04l0.19,0.22c0.37,0.38,0.72,0.8,1.08,1.22l25.09,28.5
			c0.11,0.08,0.19,0.24,0.3,0.33c1.02,0.8,1.97,1.79,2.81,3.02c0.08,0.12,0.15,0.26,0.23,0.38c3.7,5.71,5.5,15.55,5.21,27.61
			c0,0.15-0.01,0.31-0.01,0.46c-0.08,2.9-0.28,5.91-0.61,9.03c-0.03,0.32-0.07,0.63-0.11,0.95c-0.34,3.03-0.77,6.13-1.34,9.32
			c-0.08,0.45-0.18,0.91-0.27,1.37c-0.54,2.86-1.16,5.75-1.89,8.69c-0.09,0.38-0.15,0.75-0.25,1.14c-0.09,0.34-0.2,0.65-0.29,0.99
			c-0.87,3.32-1.84,6.55-2.87,9.67c-0.05,0.16-0.1,0.32-0.15,0.48c-8.53,25.32-21.95,42.79-32.5,41.45l-33.62,7.15l0-0.03
			c-2.29,0.62-4.52,0.73-6.65,0.19c-16.2-4.2-20.44-42.37-9.48-85.36C727.06,445.55,749.09,414.1,765.34,418.18z"/>
		<path class="st2" d="M805.95,377.89l-54.44,191.35c-4.65,16.32-15.19,29.82-28.91,38.09c-7.06,4.25-14.99,7.12-23.34,8.26
			l-47.12,6.39c-9.07,1.24-18.25,0.36-26.85-2.57l-276.12-94.08c-30.61-10.43-47.34-44.04-38.1-76.51l49.48-173.91
			c5.71-20.05,20.48-36.19,39.53-43.18l58.71-21.58c12.87-4.72,26.79-4.93,39.57-0.58l3.82,1.29l265.66,90.5
			C798.46,311.8,815.19,345.41,805.95,377.89z"/>
		<g>
			<path class="st1" d="M805.95,377.89l-54.44,191.35c-4.65,16.32-15.19,29.82-28.91,38.09c-0.15-0.06-0.3-0.09-0.45-0.15
				L429.27,507.4c-19.9-6.78-30.99-27.95-25.23-48.18l62.53-219.75c4.74-16.64,19.39-27.63,35.61-28.61l265.66,90.5
				C798.46,311.8,815.19,345.41,805.95,377.89z"/>
		</g>
		<g>
			<path class="st9" d="M492.33,276.27l-47.73,167.74c-4.39,15.43,4.08,31.6,19.27,36.78l223.56,76.16
				c16.33,5.56,33.99-3.69,38.71-20.28l47.73-167.74c4.39-15.43-4.08-31.6-19.27-36.78l-223.56-76.16
				C514.71,250.43,497.05,259.68,492.33,276.27z"/>
		</g>
		<g>
			<path class="st3" d="M388.22,374.86c-11.05,42.83-33.08,74.28-49.33,70.2c-2.15-0.56-4.07-1.8-5.79-3.47l-0.02,0.04l-0.19-0.22
				c-0.37-0.37-0.73-0.81-1.09-1.22l-25.08-28.49c-1.91-1.39-3.52-3.54-4.8-6.35c-2.49-5.43-3.8-13.28-3.8-22.59
				c0-9.85,1.46-21.36,4.51-33.36c7.87-30.42,23.04-52.87,35.03-52.42l4.37-0.94l30.05-6.37l-0.02,0.02
				c2.29-0.62,4.53-0.73,6.65-0.19C394.92,293.71,399.18,331.87,388.22,374.86z"/>
			<path class="st4" d="M344.47,356.9c-8.22,32.07-24.73,55.56-36.89,52.45c-2.17-0.56-4.07-1.93-5.66-4.01
				c-2.49-5.43-3.8-13.28-3.8-22.59c0-9.85,1.46-21.36,4.51-33.36c7.87-30.42,23.04-52.87,35.03-52.42l4.37-0.94
				C350.19,304.56,351.52,329.44,344.47,356.9z"/>
		</g>
		<g>
			<path class="st10" d="M554.13,404.09L554.13,404.09c13.93,3.57,28.12-4.83,31.69-18.76l4.32-16.84
				c3.57-13.93-4.83-28.12-18.76-31.69h0c-13.93-3.57-28.12,4.83-31.69,18.76l-4.32,16.84C531.8,386.33,540.2,400.52,554.13,404.09z
				"/>
			<path class="st10" d="M663.24,441.26L663.24,441.26c13.93,3.57,28.12-4.83,31.69-18.76l4.32-16.84
				c3.57-13.93-4.83-28.12-18.76-31.69l0,0c-13.93-3.57-28.12,4.83-31.69,18.76l-4.32,16.84C640.9,423.5,649.3,437.69,663.24,441.26
				z"/>
		</g>
		<path class="st10" d="M622.15,461.44c3.43,1.17,5.18,5,3.85,8.37c-7.25,18.35-24.47,28.44-37.77,25.97
			c-15.48-2.88-29.56-23.51-24.59-46.75c0.79-3.71,4.68-5.93,8.26-4.7l27.44,9.35L622.15,461.44z"/>
	</g>
</g>
<g id="Right_Shoulder">
	<g>
		<path class="st1" d="M293.83,609.85l-35.2-46.62c-4.93-6.62,6.66-23.59,25.89-37.9c19.23-14.31,38.81-20.55,43.73-13.93
			l35.2,46.62c13.88,23.79,4.94,53.09-15.75,63.84C330.88,630.59,308.17,626.1,293.83,609.85z"/>
		
			<ellipse transform="matrix(0.8021 -0.5972 0.5972 0.8021 -262.7964 281.565)" class="st2" cx="293.45" cy="537.31" rx="43.4" ry="14.94"/>
	</g>
</g>
<g id="Right_Elbow">
	<g>
		<g>
			<path class="st3" d="M288.92,501.23c3.51-2.24,11.63,4.22,18.13,14.42c6.5,10.2,8.92,20.29,5.41,22.53L279.19,559
				c-3.51,2.24-11.63-4.22-18.13-14.42c-6.5-10.2-8.92-20.29-5.41-22.53L288.92,501.23z"/>
			
				<ellipse transform="matrix(0.8434 -0.5373 0.5373 0.8434 -248.5519 228.3544)" class="st4" cx="267.42" cy="540.52" rx="3.86" ry="13.9"/>
		</g>
	</g>
</g>
<g id="Right_arm">
	<g>
		<path class="st1" d="M318.73,504.1c2.52,7.86-13.95,20.15-36.78,27.46c-22.83,7.31-43.37,6.86-45.89-1l-21.88-69.65
			c-2.52-7.86,13.95-20.15,36.78-27.46c22.83-7.31,43.37-6.86,45.89,1L318.73,504.1z"/>
	</g>
</g>
<g id="Left_hand">
	<g>
		<g>
			<path class="st1" d="M874.71,603.87c-3.51,1.8-7.21,3.83-11.04,6.12c-5.05,3.01-9.68,6.07-13.88,9.07
				c-7.99,5.71-9.32,15.03-2.51,17.82h0c3.07,1.25,7.41,0.4,11.01-2.16l23.81-16.94c4.96-3.53,7.08-9.07,4.81-12.58
				c-0.03-0.04-0.05-0.08-0.08-0.12C884.76,601.88,879.63,601.34,874.71,603.87z"/>
			<path class="st1" d="M893.06,615.6c-3.71,1.58-7.63,3.37-11.71,5.42c-5.37,2.69-10.32,5.46-14.84,8.2
				c-8.58,5.21-10.71,14.49-4.04,17.75v0c3,1.47,7.48,0.9,11.35-1.44l25.57-15.44c5.33-3.22,7.95-8.64,5.94-12.32
				c-0.02-0.04-0.04-0.08-0.07-0.12C903.42,614.27,898.26,613.39,893.06,615.6z"/>
			<path class="st1" d="M901.13,648.07c-2.4,1.71-5.01,3.45-7.86,5.18c-3.74,2.27-7.38,4.23-10.84,5.91
				c-6.57,3.19-13.5,0.08-13.23-5.96v0c0.12-2.72,2.13-5.43,5.09-6.87l19.54-9.54c4.07-1.99,8.62-1.09,10.33,2.05
				c0.02,0.04,0.04,0.07,0.06,0.11C905.79,641.81,904.49,645.68,901.13,648.07z"/>
			<path class="st1" d="M897.06,665.82c-2.19,1.52-4.58,3.06-7.17,4.6c-3.41,2.02-6.73,3.74-9.88,5.22
				c-5.99,2.81-12.22-0.08-11.91-5.55l0,0c0.14-2.46,1.99-4.89,4.69-6.16l17.8-8.41c3.71-1.75,7.82-0.89,9.32,1.97
				c0.02,0.03,0.03,0.06,0.05,0.1C901.35,660.2,900.13,663.69,897.06,665.82z"/>
		</g>
		<path class="st2" d="M807.93,645.89l1.43-4.18c1.3-3.8,3.93-7.01,7.4-9.03l19.81-11.5c5.28-3.07,11.76-3.3,17.21-0.53
			c5.1,2.59,11,6.58,16.23,12.72c11.12,13.07,12.76,28.32,12.49,37.73c-0.15,5.22-3,9.97-7.51,12.6c-2.27,1.33-4.67,2.63-7.2,3.9
			c-9.34,4.68-18.37,7.78-26.57,9.85c-10.71,2.69-21.98-1.64-28.08-10.85c-2.88-4.36-5.45-9.71-6.84-16.09
			c-0.14-0.66-0.27-1.31-0.38-1.95C804.6,660.97,805.44,653.17,807.93,645.89z"/>
		<path class="st1" d="M826.91,653.01c-9.38,1.91-17.5-7.11-15.54-17.2c1.03-5.31,2.41-10.94,4.24-16.8
			c1.39-4.45,2.91-8.59,4.48-12.41c2.2-5.35,7.69-8.16,12.93-6.67c0.06,0.02,0.13,0.04,0.19,0.05c5.73,1.62,9.26,7.82,8.03,14.09
			l-5.89,30.03C834.46,648.64,831.13,652.15,826.91,653.01L826.91,653.01z"/>
	</g>
</g>
<g id="Right_Hand">
	<g>
		<g>
			<path class="st1" d="M259.53,349.03c1.25,3.74,2.47,7.78,3.62,12.1c1.51,5.68,2.67,11.11,3.58,16.19
				c1.72,9.67-3.85,17.26-10.67,14.49l0,0c-3.07-1.25-5.58-4.89-6.36-9.25l-5.18-28.76c-1.08-6,1.28-11.44,5.35-12.36
				c0.05-0.01,0.09-0.02,0.14-0.03C253.73,340.58,257.78,343.78,259.53,349.03z"/>
			<path class="st1" d="M238.21,344.59c1.55,3.72,3.1,7.75,4.59,12.06c1.96,5.68,3.56,11.12,4.88,16.24
				c2.5,9.72-2.47,17.85-9.52,15.51l0,0c-3.17-1.05-5.98-4.59-7.11-8.96l-7.48-28.92c-1.56-6.03,0.36-11.74,4.37-12.96
				c0.04-0.01,0.09-0.03,0.13-0.04C231.73,336.39,236.03,339.37,238.21,344.59z"/>
			<path class="st1" d="M209.73,362.16c0.52,2.9,1.17,5.97,2,9.19c1.08,4.24,2.32,8.18,3.62,11.8c2.47,6.88,9.6,9.5,13.62,4.99l0,0
				c1.81-2.03,2.27-5.37,1.17-8.47l-7.31-20.48c-1.52-4.27-5.4-6.8-8.81-5.76c-0.04,0.01-0.08,0.02-0.11,0.04
				C210.78,354.42,209,358.1,209.73,362.16z"/>
			<path class="st1" d="M200.23,377.69c0.5,2.62,1.13,5.39,1.91,8.3c1.03,3.83,2.19,7.38,3.41,10.64c2.32,6.2,8.8,8.49,12.39,4.36
				l0,0c1.62-1.86,2-4.89,0.96-7.68l-6.85-18.46c-1.43-3.85-4.97-6.1-8.04-5.11c-0.03,0.01-0.07,0.02-0.1,0.03
				C201.1,370.68,199.53,374.02,200.23,377.69z"/>
		</g>
		<path class="st2" d="M277.9,425.76l1.9-3.99c1.73-3.63,2.09-7.76,1.02-11.63l-6.13-22.07c-1.63-5.88-6.1-10.58-11.93-12.41
			c-5.46-1.71-12.47-2.99-20.5-2.25c-17.09,1.57-28.92,11.33-35.31,18.24c-3.54,3.83-4.83,9.23-3.44,14.26
			c0.7,2.54,1.5,5.15,2.42,7.82c3.4,9.87,7.69,18.41,12.11,25.62c5.77,9.41,16.86,14.2,27.66,11.87c5.11-1.1,10.69-3.13,16.14-6.72
			c0.56-0.37,1.11-0.75,1.63-1.13C269.73,438.88,274.58,432.71,277.9,425.76z"/>
		<path class="st1" d="M259.34,417.58c5.37,7.92,17.48,7.15,23.14-1.43c2.98-4.52,5.93-9.51,8.72-14.98
			c2.12-4.16,3.92-8.18,5.47-12.01c2.17-5.37,0.21-11.21-4.58-13.81c-0.06-0.03-0.12-0.06-0.18-0.1
			c-5.23-2.84-12.09-0.88-15.59,4.45l-16.78,25.59C257,409.17,256.92,414.02,259.34,417.58L259.34,417.58z"/>
	</g>
</g>
</svg>
